<svg id="Pattern" xmlns="http://www.w3.org/2000/svg" width="1920" height="540"><style>.st0{fill:#e2eaea}.st1{fill:#d1dcde}.st2{fill:#dbe4e5}.st3{fill:#cfdbdd}.st5{fill:#e8eeee}</style><path class="st0" d="M1620 480h120v60h-120z"/><path class="st1" d="M1620 360h60v60h-60z"/><path class="st2" d="M1740 300h60v60h-60z"/><path class="st0" d="M1499 0h120v60h-120z"/><path class="st3" d="M180 360h120v60H180z"/><path class="st0" d="M360 420h60v60h-60zM240 540h60v60h-60zm120-300h60v60h-60z"/><path fill="#c4d2d4" d="M60 480h60v120H60z"/><path class="st3" d="M180 0h120v60H180z"/><path class="st5" d="M480 60h120v60H480z"/><path class="st0" d="M60 60h60v120H60zM0 300h60v60H0z"/><path class="st2" d="M120 300h60v60h-60z"/><path class="st0" d="M0 420h120v60H0zM0 60h60v60H0zm1800 60h120v60h-120z"/><path class="st2" d="M120 180h120v60H120z"/><path class="st3" d="M1680 60h60v60h-60zM360 60h60v60h-60z"/><path class="st5" d="M540 0h60v60h-60z"/><path class="st0" d="M300 120h60v180h-60z"/><path class="st2" d="M1800 300h60v180h-60z"/><path class="st0" d="M240 480h120v60H240z"/><path class="st2" d="M480 480h60v120h-60zm1080-60h60v120h-60z"/><path class="st3" d="M1620 120h120v60h-120z"/><path class="st2" d="M1320 0h60v60h-60z"/><path class="st0" d="M1560 240h60v60h-60z"/><path class="st1" d="M1380 60h60v60h-60z"/><path fill="#e8efef" d="M1440 480h60v60h-60z"/><path class="st0" d="M1860 180h60v60h-60z"/><path class="st3" d="M1860 480h60v120h-60z"/><path class="st0" d="M1440 180h180v60h-180z"/></svg>