<svg xmlns="http://www.w3.org/2000/svg" width="215" height="126"><desc>Created with Sketch.</desc><g fill="none"><g><g><path fill="#00B4C8" d="M95.65 115.2h23.56V91.66H95.66z"/><path fill="#0FD4E2" d="M72.1 115.2h23.55V91.66H72.1z"/><path fill="#3CE1E7" d="M119.2 115.2h23.57V91.66H119.2z"/><path fill="#82FAF8" d="M95.65 91.65h23.56V68.1H95.66z"/><path fill="#2DD9E3" d="M95.65 68.1h23.56V44.52H95.66z"/><path fill="#4BE9EB" d="M72.1 91.65h23.55V68.1H72.1z"/><path fill="#19CDDC" d="M119.2 91.65h23.57V68.1H119.2z"/><path fill="#3CE1E7" d="M48.53 115.2H72.1V91.66H48.52z"/><path fill="#0FD4E2" d="M142.77 115.2h23.56V91.66h-23.56z"/><path stroke="#0A1429" stroke-width="4" d="M48.53 123.86h117.8"/><path stroke="#0A1429" stroke-width="4" d="M107.43 32.15V0"/><path stroke="#0A1429" stroke-width="4" d="M57.03 53.03L34.3 30.3"/><g stroke="#0A1429" stroke-width="4"><path d="M32.15 103.43H0"/><path d="M182.7 103.43h32.16"/></g><path stroke="#0A1429" stroke-width="4" d="M157.83 53.03l22.74-22.74"/></g></g></g></svg>