<svg xmlns="http://www.w3.org/2000/svg" width="73" height="99" viewBox="0 0 48 65"><desc>Created with Sketch.</desc><g fill="none"><g><g><g><g fill-rule="nonzero"><path id="Shape" fill="#2DD9E3" d="M0 37.34v13.83L23.64 65V51.17z"/><path id="Shape" fill="#4BE9EB" d="M47.27 37.34L23.64 51.17V65l23.63-13.83z"/><path id="Shape" fill="#82FAF8" d="M47.27 37.34l-23.63-12.8L0 37.35l23.64 13.83z"/><path id="Shape" fill="#19CDDC" d="M23.64 44.95V31.12l11.8 6.9z"/><path id="Shape" fill="#4BE9EB" d="M23.64 44.95V31.12l-11.82 6.9z"/><path fill="#0A1429" d="M22.25 13.14h2.78v2.76h-2.78zM22.25 18.67h2.78v19.36h-2.78zM16.68 18.67h2.8l-.02 11.76h-2.78zM16.68 33.2h2.8l-.02 2.76h-2.78zM27.8 29.73h2.8v5.54h-2.8zM27.8 17.3h2.8v9.67h-2.8z"/><path id="Shape" fill="#fff" d="M43.03 12.92L23.63 2.07 4.24 12.92l19.4 11.28z"/><path id="Shape" fill="#0A1429" d="M23.64 25.8L1.44 12.9 23.65.5l22.2 12.4-22.2 12.9zM7.04 12.95l16.6 9.66 16.6-9.68-16.6-9.26-16.6 9.28z"/><path fill="#00B4C8" d="M23.64 8.33l-9.04 4.8 9.04 4.82 9.03-4.8z"/></g></g></g></g></g></svg>